<svg width="14" height="10" viewBox="0 0 14 10" fill="none" xmlns="http://www.w3.org/2000/svg">
<path d="M13.9968 3.52431C14.0282 2.599 13.8292 1.68061 13.4181 0.85442C13.1391 0.515414 12.752 0.286638 12.3242 0.207956C10.5546 0.0447408 8.77777 -0.022156 7.00119 0.00755282C5.23108 -0.0235044 3.4606 0.0412337 1.69727 0.201492C1.34864 0.265955 1.02602 0.432177 0.768761 0.679875C0.196395 1.21644 0.132799 2.13442 0.0692028 2.91017C-0.0230676 4.30496 -0.0230676 5.70447 0.0692028 7.09926C0.0876013 7.53588 0.151556 7.96929 0.259991 8.39218C0.336673 8.71869 0.491814 9.02077 0.711525 9.27137C0.970532 9.53219 1.30067 9.70787 1.65911 9.77561C3.03019 9.94765 4.41169 10.0189 5.79286 9.98895C8.01873 10.0213 9.97113 9.98895 12.2797 9.80794C12.6469 9.74436 12.9864 9.56845 13.2527 9.3037C13.4307 9.12263 13.5637 8.90101 13.6406 8.65723C13.8681 7.94782 13.9798 7.20535 13.9713 6.45926C13.9968 6.09724 13.9968 3.91219 13.9968 3.52431ZM5.56392 6.84714V2.84553L9.32881 4.85603C8.27312 5.45078 6.88036 6.1231 5.56392 6.84714Z" fill="#1A1A1A"/>
</svg>
